HIERARCHY
ROOT Hips
{
	OFFSET -0.220007615379 -22.699471514 2.53942046567
	CHANNELS 6 Xposition Yposition Zposition Zrotation Yrotation Xrotation
	JOINT LeftHip
	{
		OFFSET 6.66935117943 -9.13225545523 -0.770448292606
		CHANNELS 3 Zrotation Yrotation Xrotation
		JOINT LeftKnee
		{
			OFFSET 3.68095578469 -38.1638509502 -0.234063738749
			CHANNELS 3 Zrotation Yrotation Xrotation
			JOINT LeftFoot
			{
				OFFSET -1.43911151414 -40.486926333 -4.24808424962
				CHANNELS 3 Zrotation Yrotation Xrotation
				End LeftToe
				{
                                  OFFSET 2.73158139638 -5.63493633228 12.081448301
				}
			}
		}
	}
	JOINT RightHip
	{
		OFFSET -6.48849751438 -9.03576758506 -0.550132200281
		CHANNELS 3 Zrotation Yrotation Xrotation
		JOINT RightKnee
		{
			OFFSET -4.03521656695 -38.9114406009 -0.734716722473
			CHANNELS 3 Zrotation Yrotation Xrotation
			JOINT RightFoot
			{
				OFFSET 1.66800058689 -40.5336303802 -4.08290332183
				CHANNELS 3 Zrotation Yrotation Xrotation
				End RightToe
				{
                                        OFFSET -2.52328550698 -4.90219314329 12.5021304809
				}
			}
		}
	}
	JOINT Waist
	{
		OFFSET -0.261914693539 10.9839484998 -2.56801094393
		CHANNELS 3 Zrotation Yrotation Xrotation
		JOINT Spine
		{
			OFFSET 0.632531022654 13.892515322 0.36600244063
			CHANNELS 3 Zrotation Yrotation Xrotation
                        JOINT Chest
                        {
                            OFFSET 0.125560920509 5.42984273702 2.32002274192
                            CHANNELS 3 Zrotation Yrotation Xrotation
                            JOINT Neck
                            {
                                OFFSET -0.345396143911 21.614036162 -3.97145963419
                                CHANNELS 3 Zrotation Yrotation Xrotation
                                End Head
                                {
                                        OFFSET 0.102447665943 27.0374322665 2.06663833538
                                }
                            }
                            JOINT LeftInnerShoulder
                            {
                                OFFSET 7.89948319049 12.2640199275 -3.28263775386
                                CHANNELS 3 Zrotation Yrotation Xrotation
                                JOINT LeftShoulder
                                {
                                        OFFSET 9.20590614271 2.97598008054 -0.863694423115
                                        CHANNELS 3 Zrotation Yrotation Xrotation
                                        JOINT LeftElbow
                                        {
                                                OFFSET 26.3576385597 -1.32820160411 -2.62051881619
                                                CHANNELS 3 Zrotation Yrotation Xrotation
                                                End LeftWrist
                                                {
                                                        OFFSET 25.2414571752 0.866063675724 -0.216860760968
                                                }
                                        }
                                }
                            }
                            JOINT RightInnerShoulder
                            {
                                OFFSET -8.25287966619 11.9440344497 -3.69194180148
                                CHANNELS 3 Zrotation Yrotation Xrotation
                                JOINT RightShoulder
                                {
                                        OFFSET -9.7323556642 3.2562773615 -0.82370136072
                                        CHANNELS 3 Zrotation Yrotation Xrotation
                                        JOINT RightElbow
                                        {
                                                OFFSET -25.6724642905 -1.40267057945 -2.03446504628
                                                CHANNELS 3 Zrotation Yrotation Xrotation
                                                End RightWrist
                                                {
                                                        OFFSET -25.8612656999 0.731830162356 -0.692430906081
                                                }
                                        }
                                }
                            }
                        }
                }
            }
}
MOTION
Frames: 12
Frame Time: 0.0333333333333
0.00000 0.00000 0.00000 10.49778 61.07231 17.28166 0.45827 -0.66470 27.19424 -12.71022 -18.93765 51.75141 -7.90284 7.11286 13.64412 9.31411 4.21854 -36.93029 3.63142 -14.43353 45.39457 9.57181 -17.58932 -5.26331 -0.52796 -10.89368 5.38761 -9.18888 6.02479 4.43517 -4.51202 -3.02182 3.95899 -8.50694 -11.14966 -13.22896 -15.42012 10.51656 3.09268 -57.23441 -3.28840 16.45052 -176.36643 -49.23653 -155.72862 5.35091 -3.61023 3.22352 46.15329 -22.49011 25.89319 124.27191 57.71909 154.59921
32.09658 -3.82490 -0.01338 12.31938 59.19076 20.64610 2.14793 -2.15236 19.88037 -11.15869 -16.85208 56.84751 -8.61661 7.09194 15.07441 7.18893 1.92109 -33.48152 1.84800 -13.08431 46.29729 8.05364 -18.29758 -3.12726 -0.73941 -8.68184 5.87949 -10.08120 7.46536 2.88160 -5.34797 -1.86129 3.16470 -7.31304 -10.53636 -13.70735 -14.07195 13.94745 2.97277 -55.81110 -1.63753 16.30892 -166.48458 -54.92927 -163.76282 5.32074 -4.30678 1.93296 50.73911 -18.27260 26.61700 119.31069 60.32762 146.14132
64.21216 -7.65982 -0.01639 12.89749 56.36078 23.57724 7.34731 -3.21400 11.52985 -4.68777 -14.94145 42.95095 -3.11446 10.16849 -2.65523 0.78895 -4.14617 -30.14969 -1.21032 -15.89107 47.91645 15.96785 -20.09806 -1.07427 -3.85181 -3.81837 5.11616 -8.57942 7.17039 0.44147 -4.31980 -0.52198 2.94725 -7.27563 -9.17528 -17.33690 -12.85687 15.85336 2.43110 -53.93977 0.59273 18.55389 -145.02313 -65.40102 174.44046 9.75206 -5.61224 1.34561 55.12433 -14.47832 25.99492 117.34015 69.59693 140.80775
91.87364 -10.18281 0.00693 14.72380 58.48761 26.61916 11.17719 -4.04534 -10.17913 -6.91881 -6.11658 66.89682 -2.96265 11.10113 -11.02327 -0.60982 -5.40674 -28.50421 -0.60159 -13.52589 53.68385 13.27192 -18.18899 -12.28290 -3.85659 -0.76284 9.34229 -7.49475 5.93141 -3.42756 -3.47704 0.25705 3.35901 -7.02670 -6.99508 -21.51276 -11.47575 15.47551 2.53979 -54.46745 4.19647 20.31744 -126.70155 -66.21671 155.41822 10.18388 -2.91006 0.31340 58.55242 -6.74703 26.38741 96.74669 73.66452 114.89197
123.20030 -8.98536 0.01803 10.29117 60.21298 20.52923 16.47025 -2.12082 -30.10543 -4.78947 1.10080 90.21236 -6.97887 9.32278 -0.91075 -0.02756 -9.74841 -13.07538 3.88079 -10.25444 41.47924 7.07099 -12.78472 -14.11369 -2.63583 4.65298 11.83387 -6.42989 4.51840 -3.22403 -1.59684 2.29588 3.64431 -6.39866 -4.59109 -21.61658 -9.72951 14.67564 2.15176 -58.31768 7.13494 21.30140 -110.63917 -67.59005 136.95129 7.03688 1.24746 0.79425 60.32993 2.81884 25.43249 99.65628 78.04867 112.32059
149.90997 -7.14147 0.02234 14.80948 64.12469 26.89301 19.61767 -1.58762 -51.59833 -4.26614 6.91707 104.91664 -4.77922 5.82826 0.78441 -2.29407 -14.40540 -7.03929 4.92005 -7.96408 35.11314 11.42033 -10.38024 -4.81304 -3.93257 10.61262 11.57728 -4.95905 3.81114 -6.24310 -0.93249 3.83513 4.48190 -8.05483 -6.98623 -19.68186 -3.78129 18.19421 1.91431 -61.46883 8.37525 22.30789 -116.23968 -63.77796 141.29240 2.38240 -3.10348 0.12538 64.11079 2.24678 25.18178 157.39649 75.96362 171.99389
182.07494 -4.05005 0.04110 13.68113 64.42743 25.25969 20.40064 1.35572 -62.92159 -5.03844 11.74447 109.80832 -4.82602 1.40756 0.39707 -7.39263 -19.23167 4.18172 6.57698 -4.68757 27.40169 13.41240 -7.28929 -1.52085 -2.95642 14.02185 11.12895 -4.75878 3.38642 -7.33994 -0.11686 5.46281 5.63852 -9.28838 -3.58960 -19.23496 0.06152 23.64904 2.68581 -65.02145 13.03247 19.07365 -125.68892 -61.87562 152.02651 -2.42682 -4.45898 0.18364 66.91399 7.40511 25.95489 163.44597 68.89097 -179.98303
217.80630 1.49478 0.02319 17.68892 63.37819 26.85532 19.87195 -1.58209 -59.27425 -7.90568 9.07776 89.48953 -5.68784 0.27401 -3.89191 -14.83788 -22.62696 13.40443 3.99417 -7.22076 24.78244 17.11579 -10.09227 -2.58763 -2.12277 16.84579 12.23411 -7.13411 6.74193 -6.55209 -1.29307 8.41876 5.59747 -8.18208 -0.18571 -16.27448 0.39910 25.67611 4.12720 -62.67833 13.24084 13.56424 -132.08020 -60.35305 165.63179 -2.37406 -6.15329 0.03127 68.47363 5.40282 21.74217 175.90640 61.11703 -160.26467
251.70954 2.69220 -0.00433 21.79708 65.88837 30.15618 17.46997 -6.06532 -57.66596 -9.81972 1.78939 73.04828 -5.25741 0.75938 -1.82863 -15.02929 -21.77628 18.34109 1.35271 -4.06353 24.85530 18.30854 -13.62843 2.37088 -2.05362 18.68734 12.53628 -7.59003 7.83013 -6.70702 -1.29652 9.56304 6.45417 -6.53436 -2.31251 -15.83733 1.08761 29.31399 5.41567 -58.32390 14.86393 13.17746 -128.09541 -62.61416 157.07023 -3.86704 -8.56587 -1.40796 68.40911 2.25437 22.49031 -179.07618 56.66838 -158.54976
289.98517 1.18984 -0.01053 24.60645 66.56344 33.54265 14.25579 -12.41316 -53.66222 -8.59773 -5.15193 57.25081 -2.84409 4.01255 0.35598 -11.26806 -17.39827 14.58930 0.09891 -0.25690 41.27030 20.55569 -19.89680 14.27559 -4.23466 17.43943 8.84421 -7.16723 8.40416 -4.94209 -1.36380 8.90850 6.98711 -4.42933 -7.65954 -16.40573 2.21441 34.28084 6.15825 -59.21289 18.79603 12.82191 -125.59433 -68.21526 146.55312 -5.27721 -10.31319 -1.49493 69.24060 1.74801 26.73199 -177.48522 59.01808 -163.82695
324.30726 -0.38454 -0.02283 26.39507 67.47517 35.36205 10.04345 -15.07629 -48.23766 -4.93059 -10.94301 46.48731 -0.96566 6.10458 7.95393 -8.02699 -15.48233 9.59351 -0.17314 0.80487 58.72492 18.80143 -22.65674 23.03059 -4.35173 15.89464 9.53887 -7.26184 9.22712 -6.01049 -1.56411 8.73952 7.25814 -3.57086 -6.24032 -16.79785 1.94073 37.14959 5.20551 -60.23653 19.40813 11.14337 -107.94652 -73.01254 134.61944 -4.32637 -12.25819 -1.69104 71.45895 0.08798 27.95591 179.66223 66.16838 -163.22737
356.25288 -2.73935 -0.03194 28.42941 69.47537 36.73161 5.33714 -17.24822 -40.56185 -3.21078 -15.54877 38.68479 -2.24982 6.87749 17.56527 -4.55520 -13.56029 2.08770 -2.23099 -4.07866 80.32700 14.32046 -23.77889 23.36387 -3.96987 13.44806 7.99654 -6.51406 9.21688 -5.14005 -1.09418 8.12715 7.71111 -6.37241 -7.01761 -13.90369 5.08548 35.93439 6.28054 -66.08340 17.79046 14.99579 -78.27413 -72.97926 104.07478 -7.31281 -11.31825 1.14798 74.96390 -0.75204 28.76691 175.66877 79.20550 -170.18311
